Coordinates
version=1
nRows=11
nColumns=40
inDegrees=yes

Units are S.I. units (second, meters, Newtons, ...)
If the header above contains a line with 'inDegrees', this indicates whether rotational values are in degrees (yes) or radians (no).

endheader
time	pelvis_tilt	pelvis_list	pelvis_rotation	pelvis_tx	pelvis_ty	pelvis_tz	hip_flexion_r	hip_adduction_r	hip_rotation_r	knee_angle_r	knee_angle_r_beta	ankle_angle_r	subtalar_angle_r	mtp_angle_r	hip_flexion_l	hip_adduction_l	hip_rotation_l	knee_angle_l	knee_angle_l_beta	ankle_angle_l	subtalar_angle_l	mtp_angle_l	lumbar_extension	lumbar_bending	lumbar_rotation	arm_flex_r	arm_add_r	arm_rot_r	elbow_flex_r	pro_sup_r	wrist_flex_r	wrist_dev_r	arm_flex_l	arm_add_l	arm_rot_l	elbow_flex_l	pro_sup_l	wrist_flex_l	wrist_dev_l
      8.25000000	     88.43594051	     89.57795094	     88.42807515	      0.25357432	      0.60318964	      0.90188109	      8.29388958	     -9.36018579	    -11.87646122	      5.08079511	      0.08867660	     -4.49508280	      0.00000000	      0.00000000	      4.84971401	    -10.60611244	    -16.70691095	      2.20666893	      0.03851364	     -5.96183030	      0.00000000	      0.00000000	     -5.87178389	     -5.20005188	      4.98716171	      0.00000000	    -14.99999998	      0.00000000	     75.00017585	     45.00000026	      0.00000000	      0.00000000	      0.00000000	    -14.99999998	      0.00000000	     75.00017585	     45.00000026	      0.00000000	      0.00000000
      8.25500000	     88.43004427	     89.59585797	     88.42228420	      0.25332551	      0.60288194	      0.90175976	      8.26818025	     -9.38461300	    -11.83408328	      5.10922498	      0.08917280	     -4.48498624	      0.00000000	      0.00000000	      4.83241998	    -10.58839751	    -16.63534781	      2.24832780	      0.03924072	     -5.91724954	      0.00000000	      0.00000000	     -5.58628115	     -5.15362144	      5.04143623	      0.00000000	    -14.99999998	      0.00000000	     75.00017585	     45.00000026	      0.00000000	      0.00000000	      0.00000000	    -14.99999998	      0.00000000	     75.00017585	     45.00000026	      0.00000000	      0.00000000
      8.26000000	     88.34686688	     89.64483993	     88.33916194	      0.25317870	      0.60291634	      0.90161054	      8.26275688	     -9.39237742	    -11.82661814	      5.15822028	      0.09002793	     -4.30797507	      0.00000000	      0.00000000	      4.74387991	    -10.60050548	    -16.76319535	      2.33860396	      0.04081634	     -5.36793580	      0.00000000	      0.00000000	     -5.41447464	     -5.13080789	      5.34887251	      0.00000000	    -14.99999998	      0.00000000	     75.00017585	     45.00000026	      0.00000000	      0.00000000	      0.00000000	    -14.99999998	      0.00000000	     75.00017585	     45.00000026	      0.00000000	      0.00000000
      8.26500000	     88.32084938	     89.64293691	     88.31318944	      0.25311428	      0.60277578	      0.90144008	      8.28656956	     -9.40402471	    -11.78222810	      5.17576132	      0.09033408	     -4.30486732	      0.00000000	      0.00000000	      4.74202182	    -10.60105386	    -16.69752341	      2.39116520	      0.04173371	     -5.35825644	      0.00000000	      0.00000000	     -5.14362722	     -5.09013599	      5.40663008	      0.00000000	    -14.99999998	      0.00000000	     75.00017585	     45.00000026	      0.00000000	      0.00000000	      0.00000000	    -14.99999998	      0.00000000	     75.00017585	     45.00000026	      0.00000000	      0.00000000
      8.27000000	     88.19227191	     89.66355811	     88.18728979	      0.25321014	      0.60274650	      0.90126155	      8.37603422	     -9.39863604	    -11.53064673	      5.28081254	      0.09216757	     -4.18695963	      0.00000000	      0.00000000	      4.76443406	    -10.63733193	    -17.11077601	      2.64139429	      0.04610103	     -4.96711584	      0.00000000	      0.00000000	     -4.96566303	     -5.03837064	      5.92760703	      0.00000000	    -14.99999998	      0.00000000	     75.00017585	     45.00000026	      0.00000000	      0.00000000	      0.00000000	    -14.99999998	      0.00000000	     75.00017585	     45.00000026	      0.00000000	      0.00000000
      8.27500000	     88.15472972	     89.65669314	     88.14978917	      0.25324143	      0.60264234	      0.90112184	      8.39974403	     -9.40139321	    -11.51116900	      5.27764867	      0.09211235	     -4.18744815	      0.00000000	      0.00000000	      4.75898459	    -10.64047526	    -17.05340932	      2.66338211	      0.04648479	     -4.95892265	      0.00000000	      0.00000000	     -4.69776803	     -5.00271589	      5.96776034	      0.00000000	    -14.99999998	      0.00000000	     75.00017585	     45.00000026	      0.00000000	      0.00000000	      0.00000000	    -14.99999998	      0.00000000	     75.00017585	     45.00000026	      0.00000000	      0.00000000
      8.28000000	     88.08048317	     89.67983957	     88.07566756	      0.25309479	      0.60267072	      0.90100874	      8.37287670	     -9.38704257	    -11.46107496	      5.21621747	      0.09104017	     -4.15990566	      0.00000000	      0.00000000	      4.64097892	    -10.62816362	    -17.15773325	      2.60062728	      0.04538951	     -4.79124541	      0.00000000	      0.00000000	     -4.46486697	     -4.96396400	      6.07678582	      0.00000000	    -14.99999998	      0.00000000	     75.00017585	     45.00000026	      0.00000000	      0.00000000	      0.00000000	    -14.99999998	      0.00000000	     75.00017585	     45.00000026	      0.00000000	      0.00000000
      8.28500000	     88.05122120	     89.66825650	     88.04629101	      0.25320292	      0.60247453	      0.90088178	      8.39947546	     -9.39822742	    -11.41869703	      5.21227050	      0.09097128	     -4.16596841	      0.00000000	      0.00000000	      4.64319754	    -10.62206021	    -17.10429890	      2.61972564	      0.04572284	     -4.78520301	      0.00000000	      0.00000000	     -4.21220109	     -4.92349360	      6.12252698	      0.00000000	    -14.99999998	      0.00000000	     75.00017585	     45.00000026	      0.00000000	      0.00000000	      0.00000000	    -14.99999998	      0.00000000	     75.00017585	     45.00000026	      0.00000000	      0.00000000
      8.29000000	     88.03962546	     89.66552276	     88.03484440	      0.25337571	      0.60207030	      0.90077784	      8.41155472	     -9.41984238	    -11.39216460	      5.19475552	      0.09066559	     -4.17114757	      0.00000000	      0.00000000	      4.65164026	    -10.59543564	    -17.11531904	      2.62412948	      0.04579970	     -4.75158965	      0.00000000	      0.00000000	     -3.99538049	     -4.85139824	      6.17460610	      0.00000000	    -14.99999998	      0.00000000	     75.00017585	     45.00000026	      0.00000000	      0.00000000	      0.00000000	    -14.99999998	      0.00000000	     75.00017585	     45.00000026	      0.00000000	      0.00000000
      8.29500000	     87.93609072	     89.69102821	     87.93384434	      0.25320463	      0.60205337	      0.90073176	      8.36024054	     -9.39095969	    -11.26837134	      5.05447907	      0.08821730	     -4.23248308	      0.00000000	      0.00000000	      4.52032898	    -10.59174096	    -17.41417550	      2.57467368	      0.04493653	     -4.53118569	      0.00000000	      0.00000000	     -3.78315203	     -4.80381707	      6.42550424	      0.00000000	    -14.99999998	      0.00000000	     75.00017585	     45.00000026	      0.00000000	      0.00000000	      0.00000000	    -14.99999998	      0.00000000	     75.00017585	     45.00000026	      0.00000000	      0.00000000
      8.30000000	     87.92046549	     89.68266767	     87.91838514	      0.25330274	      0.60182075	      0.90063091	      8.37998397	     -9.40366744	    -11.22467537	      5.05284529	      0.08818879	     -4.24104711	      0.00000000	      0.00000000	      4.52823441	    -10.57876965	    -17.38109491	      2.58879855	      0.04518306	     -4.52899546	      0.00000000	      0.00000000	     -3.56074359	     -4.75839919	      6.47336955	      0.00000000	    -14.99999998	      0.00000000	     75.00017585	     45.00000026	      0.00000000	      0.00000000	      0.00000000	    -14.99999998	      0.00000000	     75.00017585	     45.00000026	      0.00000000	      0.00000000
